<?xml version="1.0" encoding="UTF-8" standalone="no"?>
<!-- Created with Inkscape (http://www.inkscape.org/) -->

<svg
   width="173.46863mm"
   height="54.43174mm"
   viewBox="0 0 173.46862 54.431741"
   version="1.1"
   id="svg1"
   inkscape:version="1.3.2 (091e20e, 2023-11-25, custom)"
   sodipodi:docname="experience.svg"
   inkscape:export-filename="experience.svg"
   inkscape:export-xdpi="96"
   inkscape:export-ydpi="96"
   xmlns:inkscape="http://www.inkscape.org/namespaces/inkscape"
   xmlns:sodipodi="http://sodipodi.sourceforge.net/DTD/sodipodi-0.dtd"
   xmlns="http://www.w3.org/2000/svg"
   xmlns:svg="http://www.w3.org/2000/svg">
  <sodipodi:namedview
     id="namedview1"
     pagecolor="#ffffff"
     bordercolor="#000000"
     borderopacity="0.25"
     inkscape:showpageshadow="2"
     inkscape:pageopacity="0.0"
     inkscape:pagecheckerboard="0"
     inkscape:deskcolor="#d1d1d1"
     inkscape:document-units="mm"
     inkscape:zoom="0.72426347"
     inkscape:cx="24.162478"
     inkscape:cy="497.74704"
     inkscape:window-width="1920"
     inkscape:window-height="1009"
     inkscape:window-x="1072"
     inkscape:window-y="-8"
     inkscape:window-maximized="1"
     inkscape:current-layer="layer1"
     inkscape:export-bgcolor="#00000f00">
    <inkscape:page
       x="0"
       y="0"
       width="173.46863"
       height="54.431744"
       id="page1"
       margin="0.36531365 0 0"
       bleed="0" />
  </sodipodi:namedview>
  <defs
     id="defs1">
    <rect
       x="121.50275"
       y="372.79251"
       width="541.2395"
       height="262.33548"
       id="rect4" />
    <rect
       x="-28.994972"
       y="198.82268"
       width="559.18878"
       height="428.02103"
       id="rect3" />
    <rect
       x="91.12706"
       y="287.18832"
       width="382.45752"
       height="356.22397"
       id="rect2" />
    <filter
       style="color-interpolation-filters:sRGB"
       id="filter13"
       inkscape:label="filter2"
       x="-0.009632986"
       y="-0.026278786"
       width="1.019266"
       height="1.0525576">
      <feGaussianBlur
         stdDeviation="0.5"
         id="feGaussianBlur13"
         result="result1" />
      <feTurbulence
         id="feTurbulence13"
         type="fractalNoise"
         baseFrequency="3"
         numOctaves="2"
         seed="1" />
      <feBlend
         mode="overlay"
         id="feBlend13"
         in="result1" />
    </filter>
    <filter
       style="color-interpolation-filters:sRGB"
       inkscape:label="Noise Fill"
       id="filter32"
       x="0"
       y="0"
       width="1"
       height="1">
      <feTurbulence
         type="fractalNoise"
         baseFrequency="82.5153 84.6626"
         numOctaves="5"
         seed="321"
         result="turbulence"
         id="feTurbulence31" />
      <feComposite
         in="SourceGraphic"
         in2="turbulence"
         operator="in"
         result="composite1"
         id="feComposite31" />
      <feColorMatrix
         values="1 0 0 0 0 0 1 0 0 0 0 0 1 0 0 0 0 0 5.02128 -2.27964 "
         result="color"
         id="feColorMatrix31" />
      <feFlood
         flood-opacity="1"
         flood-color="rgb(194,178,128)"
         result="flood"
         id="feFlood31" />
      <feMerge
         result="merge"
         id="feMerge32">
        <feMergeNode
           in="flood"
           id="feMergeNode31" />
        <feMergeNode
           in="color"
           id="feMergeNode32" />
      </feMerge>
      <feComposite
         in2="SourceGraphic"
         operator="in"
         result="fbSourceGraphic"
         id="feComposite32" />
      <feColorMatrix
         result="fbSourceGraphicAlpha"
         in="fbSourceGraphic"
         values="0 0 0 -1 0 0 0 0 -1 0 0 0 0 -1 0 0 0 0 1 0"
         id="feColorMatrix32" />
      <feTurbulence
         id="feTurbulence32"
         type="fractalNoise"
         baseFrequency="82.5153 84.6626"
         numOctaves="5"
         seed="321"
         result="turbulence" />
      <feComposite
         id="feComposite33"
         in="fbSourceGraphic"
         in2="turbulence"
         operator="in"
         result="composite1" />
      <feColorMatrix
         id="feColorMatrix33"
         values="1 0 0 0 0 0 1 0 0 0 0 0 1 0 0 0 0 0 5.02128 -2.27964 "
         result="color" />
      <feFlood
         id="feFlood33"
         flood-opacity="1"
         flood-color="rgb(203,189,147)"
         result="flood" />
      <feMerge
         id="feMerge33"
         result="merge">
        <feMergeNode
           id="feMergeNode33"
           in="flood" />
        <feMergeNode
           id="feMergeNode34"
           in="color" />
      </feMerge>
      <feComposite
         id="feComposite34"
         in2="fbSourceGraphic"
         operator="in"
         result="fbSourceGraphic" />
      <feColorMatrix
         result="fbSourceGraphicAlpha"
         in="fbSourceGraphic"
         values="0 0 0 -1 0 0 0 0 -1 0 0 0 0 -1 0 0 0 0 1 0"
         id="feColorMatrix146" />
      <feTurbulence
         id="feTurbulence146"
         type="fractalNoise"
         baseFrequency="17.7914 5.21472"
         numOctaves="1"
         seed="19"
         result="turbulence" />
      <feComposite
         id="feComposite146"
         in="fbSourceGraphic"
         in2="turbulence"
         operator="in"
         result="composite1" />
      <feColorMatrix
         id="feColorMatrix147"
         values="1 0 0 0 0 0 1 0 0 0 0 0 1 0 0 0 0 0 4.7234 -1.82371 "
         result="color" />
      <feFlood
         id="feFlood147"
         flood-opacity="1"
         flood-color="rgb(246,228,173)"
         result="flood" />
      <feMerge
         id="feMerge147"
         result="merge">
        <feMergeNode
           id="feMergeNode147"
           in="flood" />
        <feMergeNode
           id="feMergeNode148"
           in="color" />
      </feMerge>
      <feComposite
         id="feComposite148"
         in2="fbSourceGraphic"
         operator="in"
         result="composite2" />
    </filter>
    <filter
       style="color-interpolation-filters:sRGB"
       inkscape:label="Noise Fill"
       id="filter32-7"
       x="-0.0096354333"
       y="-0.034764648"
       width="1.0192709"
       height="1.0695293">
      <feTurbulence
         type="fractalNoise"
         baseFrequency="82.5153 84.6626"
         numOctaves="5"
         seed="321"
         result="turbulence"
         id="feTurbulence31-4" />
      <feComposite
         in="SourceGraphic"
         in2="turbulence"
         operator="in"
         result="composite1"
         id="feComposite31-7" />
      <feColorMatrix
         values="1 0 0 0 0 0 1 0 0 0 0 0 1 0 0 0 0 0 5.02128 -2.27964 "
         result="color"
         id="feColorMatrix31-4" />
      <feFlood
         flood-opacity="1"
         flood-color="rgb(194,178,128)"
         result="flood"
         id="feFlood31-9" />
      <feMerge
         result="merge"
         id="feMerge32-0">
        <feMergeNode
           in="flood"
           id="feMergeNode31-9" />
        <feMergeNode
           in="color"
           id="feMergeNode32-9" />
      </feMerge>
      <feComposite
         in2="SourceGraphic"
         operator="in"
         result="fbSourceGraphic"
         id="feComposite32-3" />
      <feColorMatrix
         result="fbSourceGraphicAlpha"
         in="fbSourceGraphic"
         values="0 0 0 -1 0 0 0 0 -1 0 0 0 0 -1 0 0 0 0 1 0"
         id="feColorMatrix32-3" />
      <feTurbulence
         id="feTurbulence32-5"
         type="fractalNoise"
         baseFrequency="82.5153 84.6626"
         numOctaves="5"
         seed="321"
         result="turbulence" />
      <feComposite
         id="feComposite33-8"
         in="fbSourceGraphic"
         in2="turbulence"
         operator="in"
         result="composite1" />
      <feColorMatrix
         id="feColorMatrix33-5"
         values="1 0 0 0 0 0 1 0 0 0 0 0 1 0 0 0 0 0 5.02128 -2.27964 "
         result="color" />
      <feFlood
         id="feFlood33-9"
         flood-opacity="1"
         flood-color="rgb(203,189,147)"
         result="flood" />
      <feMerge
         id="feMerge33-7"
         result="merge">
        <feMergeNode
           id="feMergeNode33-6"
           in="flood" />
        <feMergeNode
           id="feMergeNode34-8"
           in="color" />
      </feMerge>
      <feComposite
         id="feComposite34-0"
         in2="fbSourceGraphic"
         operator="in"
         result="fbSourceGraphic" />
      <feColorMatrix
         result="fbSourceGraphicAlpha"
         in="fbSourceGraphic"
         values="0 0 0 -1 0 0 0 0 -1 0 0 0 0 -1 0 0 0 0 1 0"
         id="feColorMatrix146-0" />
      <feTurbulence
         id="feTurbulence146-6"
         type="fractalNoise"
         baseFrequency="17.7914 5.21472"
         numOctaves="1"
         seed="19"
         result="turbulence" />
      <feComposite
         id="feComposite146-4"
         in="fbSourceGraphic"
         in2="turbulence"
         operator="in"
         result="composite1" />
      <feColorMatrix
         id="feColorMatrix147-0"
         values="1 0 0 0 0 0 1 0 0 0 0 0 1 0 0 0 0 0 4.7234 -1.82371 "
         result="color" />
      <feFlood
         id="feFlood147-4"
         flood-opacity="1"
         flood-color="rgb(246,228,173)"
         result="flood" />
      <feMerge
         id="feMerge147-1"
         result="merge">
        <feMergeNode
           id="feMergeNode147-6"
           in="flood" />
        <feMergeNode
           id="feMergeNode148-6"
           in="color" />
      </feMerge>
      <feComposite
         id="feComposite148-3"
         in2="fbSourceGraphic"
         operator="in"
         result="fbSourceGraphic" />
      <feColorMatrix
         result="fbSourceGraphicAlpha"
         in="fbSourceGraphic"
         values="0 0 0 -1 0 0 0 0 -1 0 0 0 0 -1 0 0 0 0 1 0"
         id="feColorMatrix150" />
      <feTurbulence
         id="feTurbulence150"
         type="fractalNoise"
         baseFrequency="17.7914 5.21472"
         numOctaves="1"
         seed="19"
         result="turbulence" />
      <feComposite
         id="feComposite150"
         in="fbSourceGraphic"
         in2="turbulence"
         operator="in"
         result="composite1" />
      <feColorMatrix
         id="feColorMatrix151"
         values="1 0 0 0 0 0 1 0 0 0 0 0 1 0 0 0 0 0 4.7234 -1.82371 "
         result="color" />
      <feFlood
         id="feFlood151"
         flood-opacity="1"
         flood-color="rgb(194,178,128)"
         result="flood" />
      <feMerge
         id="feMerge151"
         result="merge">
        <feMergeNode
           id="feMergeNode151"
           in="flood" />
        <feMergeNode
           id="feMergeNode152"
           in="color" />
      </feMerge>
      <feComposite
         id="feComposite152"
         in2="fbSourceGraphic"
         operator="in"
         result="composite2" />
    </filter>
    <filter
       style="color-interpolation-filters:sRGB"
       inkscape:label="Dark sand"
       id="filter159"
       x="-0.0096354333"
       y="-0.034764648"
       width="1.0192709"
       height="1.0695293">
      <feTurbulence
         type="fractalNoise"
         baseFrequency="17.7914 5.21472"
         numOctaves="1"
         seed="19"
         result="turbulence"
         id="feTurbulence158" />
      <feComposite
         in="SourceGraphic"
         in2="turbulence"
         operator="in"
         result="composite1"
         id="feComposite158" />
      <feColorMatrix
         values="1 0 0 0 0 0 1 0 0 0 0 0 1 0 0 0 0 0 4.7234 -1.82371 "
         result="color"
         id="feColorMatrix158" />
      <feFlood
         flood-opacity="1"
         flood-color="rgb(168,159,145)"
         result="flood"
         id="feFlood158" />
      <feMerge
         result="merge"
         id="feMerge159">
        <feMergeNode
           in="flood"
           id="feMergeNode158" />
        <feMergeNode
           in="color"
           id="feMergeNode159" />
      </feMerge>
      <feComposite
         in2="SourceGraphic"
         operator="in"
         result="composite2"
         id="feComposite159" />
    </filter>
    <clipPath
       clipPathUnits="userSpaceOnUse"
       id="clipPath159">
      <path
         d="m 65.171045,207.89209 q 0,1.00808 -2.013969,1.92128 -1.944523,0.87763 -4.613279,1.16227 -1.597287,0.16603 -4.732333,0.16603 -1.111155,0 -1.507997,-0.0949 -0.992103,-0.22533 -0.992103,-1.01993 0,-0.48626 0.267869,-0.83019 0.277789,-0.33208 0.664709,-0.33208 h 0.912735 q 0.48613,-2.88192 0.48613,-12.16812 0,-0.39138 -0.03969,-4.32882 -0.327395,0 -0.674629,0.0119 -0.347238,0.0118 -0.357157,0.0118 -1.04171,0 -1.04171,-1.09109 0,-0.72345 0.545658,-1.00808 0.505971,-0.24906 1.736179,-0.24906 5.149016,0 8.224536,1.11482 2.053655,0.74716 2.053655,1.74339 0,0.41509 -0.267869,0.75902 -0.257946,0.33207 -0.565498,0.33207 -0.178578,0 -0.763921,-0.28463 -0.734156,-0.36766 -1.250049,-0.50997 -1.349262,-0.40323 -5.645068,-0.73531 0,2.14662 -0.03969,6.80751 1.250051,0.0949 2.400891,0.0949 0.803603,0 1.666732,-0.0712 0.863131,-0.0712 0.932579,-0.0712 1.07147,0 1.07147,1.09111 0,0.8539 -0.902813,1.07923 -0.615105,0.15418 -2.767968,0.15418 -1.190524,0 -2.440574,-0.0712 -0.09921,5.44364 -0.367079,7.38864 h 0.406762 q 3.978335,0 5.992303,-0.71158 0.545658,-0.18976 1.547682,-0.79461 0.803603,-0.48625 1.180604,-0.48625 0.357156,0 0.625025,0.30836 0.267867,0.30835 0.267867,0.71158 z m 12.123502,-1.36387 q 0,0.49811 -0.277789,0.87763 -0.277789,0.36765 -0.615103,0.36765 -0.634947,0 -5.139096,-4.4237 -1.408787,1.70781 -2.817572,3.42747 -1.061551,1.23342 -1.488156,1.23342 -0.426605,0 -0.744076,-0.36766 -0.317473,-0.37951 -0.317473,-0.86576 0,-0.60485 1.140918,-1.8264 1.92468,-2.08732 2.777887,-3.22586 -2.827493,-3.35631 -3.740226,-6.00104 -0.5655,-0.39137 -0.5655,-0.99622 0,-0.52183 0.29763,-0.88949 0.297632,-0.37951 0.694472,-0.37951 0.575421,0 0.942498,0.52183 0.257948,0.35579 0.684552,1.47061 0.803604,2.05175 2.926704,4.51858 1.597287,-2.13476 2.440573,-4.15092 0.297632,-0.81832 0.605184,-1.64852 0.297632,-0.66414 0.853209,-0.66414 0.446446,0 0.734157,0.33207 0.28771,0.33207 0.28771,0.86576 0,2.08732 -3.45252,6.89054 0.912735,0.94878 3.442598,3.11912 1.329419,1.13854 1.329419,1.81454 z m 11.478633,-5.17086 q 0,3.0361 -1.517916,4.85064 -1.507997,1.80269 -4.047783,1.80269 -1.418706,0 -2.767966,-0.74717 -0.228184,2.77519 -0.377,3.41562 -0.248026,1.04366 -0.902814,1.04366 -0.416683,0 -0.704393,-0.30835 -0.287709,-0.30836 -0.287709,-0.75903 0,0.0712 0.158736,-1.50619 0.19842,-1.85012 0.307551,-3.99674 0.158738,-3.08355 0.158738,-6.66519 0,-0.7116 -0.01983,-1.62479 -0.01983,-0.92507 -0.01983,-1.11482 0,-1.57736 0.922657,-1.57736 0.962339,0 0.992102,1.09111 l 0.01983,0.72345 q 1.190524,-1.37574 3.085441,-1.37574 2.252075,0 3.611256,1.80268 1.388944,1.83827 1.388944,4.94553 z m -1.974284,0 q 0,-2.17034 -0.843288,-3.36818 -0.843288,-1.19784 -2.341363,-1.19784 -2.341363,0 -2.887021,1.76712 v 1.17411 q 0,2.75146 -0.119051,5.40805 1.279812,0.73531 2.599308,0.73531 1.716341,0 2.648917,-1.17412 0.942498,-1.17411 0.942498,-3.34445 z m 13.492594,-2.4787 q 0,1.23342 -0.714307,1.82641 -0.317473,0.26091 -2.013972,0.676 -2.252071,0.55742 -3.839437,0.55742 -0.724235,0 -1.746101,-0.1186 0,4.47113 2.847337,4.47113 0.78376,0 1.418708,-0.53369 0.317473,-0.26091 1.140918,-1.26899 0.297634,-0.36766 0.625023,-0.36766 0.416683,0 0.714317,0.37952 0.307549,0.36766 0.307549,0.9132 0,0.45067 -0.28771,0.83018 -1.706415,2.22965 -3.998174,2.22965 -4.742252,0 -4.742252,-6.55847 0,-3.38003 1.507997,-5.835 1.716336,-2.78704 4.2462,-2.78704 1.974286,0 3.2541,1.57734 1.279804,1.57735 1.279804,4.0086 z m -1.974274,0.14233 q -0.05954,-1.64852 -0.724242,-2.60916 -0.654786,-0.96064 -1.64689,-0.96064 -1.289732,0 -2.271914,1.10296 -1.011945,1.11482 -1.507997,3.1547 0.704394,0.0949 1.498076,0.0949 1.92468,0 4.652967,-0.78274 z m 11.181004,-1.83827 q 0,0.45067 -0.22818,0.75903 -0.22819,0.30835 -0.54566,0.30835 -0.23811,0 -0.7044,-0.41509 -0.46629,-0.41509 -0.84328,-0.41509 -0.94251,0 -1.52784,0.99622 -0.58535,0.98436 -0.58535,2.66844 v 1.55363 q 0,2.5973 -0.45636,4.12721 -0.42661,1.43503 -1.10124,1.43503 -0.90281,0 -0.90281,-1.06738 0,-0.21347 0.27779,-1.56549 0.27778,-1.36388 0.27778,-2.56171 0,-3.32074 -0.79368,-5.31318 -0.0199,-0.0593 -0.54566,-1.19784 -0.26786,-0.58112 -0.26786,-0.92506 0,-0.37951 0.30755,-0.71159 0.30755,-0.33207 0.66471,-0.33207 1.05163,0 1.7461,3.08354 1.03179,-2.37196 3.00608,-2.37196 0.9921,0 1.6072,0.55742 0.61511,0.54554 0.61511,1.38759 z m 4.54383,-6.15523 q 0,1.6841 -1.37902,1.6841 -0.55559,0 -0.9425,-0.46254 -0.377,-0.46253 -0.377,-1.11482 0,-0.71158 0.41668,-1.20969 0.41668,-0.49812 1.02187,-0.49812 0.56549,0 0.91273,0.43882 0.34724,0.43881 0.34724,1.16225 z m -0.4266,4.51858 q 0,7.15145 -0.42661,10.56706 -0.16865,1.37573 -0.377,1.85012 -0.26786,0.62857 -0.86313,0.62857 -0.39684,0 -0.67463,-0.30835 -0.27779,-0.32022 -0.27779,-0.75903 0,0.0593 0.15874,-0.81832 0.1885,-0.99623 0.30755,-2.26522 0.15874,-1.80269 0.15874,-4.03232 0,-0.9725 -0.0198,-2.05175 -0.0199,-1.07923 -0.0199,-1.17411 0,-1.60107 0.22818,-2.22964 0.2381,-0.68786 0.8929,-0.68786 0.91273,0 0.91273,1.28085 z m 12.75844,3.33259 q 0,1.23342 -0.71431,1.82641 -0.31747,0.26091 -2.01397,0.676 -2.25207,0.55742 -3.83944,0.55742 -0.72423,0 -1.7461,-0.1186 0,4.47113 2.84734,4.47113 0.78376,0 1.41871,-0.53369 0.31747,-0.26091 1.14091,-1.26899 0.29764,-0.36766 0.62503,-0.36766 0.41668,0 0.71431,0.37952 0.30755,0.36766 0.30755,0.9132 0,0.45067 -0.28771,0.83018 -1.70641,2.22965 -3.99817,2.22965 -4.74226,0 -4.74226,-6.55847 0,-3.38003 1.508,-5.835 1.71634,-2.78704 4.2462,-2.78704 1.97429,0 3.2541,1.57734 1.27981,1.57735 1.27981,4.0086 z m -1.97428,0.14233 q -0.0595,-1.64852 -0.72424,-2.60916 -0.65478,-0.96064 -1.64689,-0.96064 -1.28973,0 -2.27191,1.10296 -1.01195,1.11482 -1.508,3.1547 0.70439,0.0949 1.49807,0.0949 1.92469,0 4.65297,-0.78274 z m 13.35371,1.92128 q 0,2.82263 -0.77385,5.60967 -0.4762,1.73153 -1.1806,1.73153 -0.377,0 -0.64486,-0.27278 -0.26787,-0.28464 -0.26787,-0.676 0,-0.10675 0.47621,-2.15849 0.47621,-2.06359 0.47621,-4.09162 0,-4.61344 -2.41081,-4.61344 -1.37903,0 -2.25208,1.22155 -0.90281,1.25714 -0.90281,3.32073 0,1.15041 0.26787,3.214 0.27778,2.05174 0.27778,2.92937 0,2.03988 -0.97225,2.03988 -0.49606,0 -0.68456,-0.26092 -0.14881,-0.20161 -0.24803,-0.83018 -0.01,-0.7353 -0.24802,-4.2458 -0.40676,-4.90994 -0.40676,-6.97355 0,-3.5935 1.16076,-3.5935 0.377,0 0.64487,0.28463 0.26786,0.27277 0.26786,0.64042 0,0.26092 -0.11905,0.98436 -0.11905,0.72345 -0.11905,1.22156 v 0.27278 q 1.46831,-2.38381 3.57157,-2.38381 1.9346,0 3.00608,1.71966 1.08139,1.7078 1.08139,4.90995 z m 12.94694,3.22586 q 0,1.23342 -2.09334,3.16656 -1.47823,1.35201 -3.87912,1.35201 -2.38105,0 -3.75015,-1.87385 -1.39887,-1.90941 -1.39887,-5.24202 0,-4.30509 1.60721,-6.70077 1.60721,-2.40753 4.41486,-2.40753 2.08341,0 3.41284,1.11482 1.25996,1.04366 1.25996,2.50241 0,1.19784 -0.93257,1.19784 -0.43653,0 -0.63495,-0.36766 -0.17858,-0.52183 -0.54566,-1.30457 -0.70439,-0.94878 -2.55962,-0.94878 -1.9346,0 -2.99616,1.74339 -1.05162,1.74338 -1.05162,4.98109 0,5.12343 3.41283,5.12343 1.97429,0 3.37316,-1.67222 0.01,-0.0118 0.61509,-1.06738 0.35716,-0.64043 0.81353,-0.64043 0.35716,0 0.64487,0.33207 0.28771,0.32021 0.28771,0.71159 z m 11.39926,-5.28947 q 0,1.23342 -0.71431,1.82641 -0.31747,0.26091 -2.01397,0.676 -2.25208,0.55742 -3.83944,0.55742 -0.72423,0 -1.7461,-0.1186 0,4.47113 2.84733,4.47113 0.78377,0 1.41871,-0.53369 0.31748,-0.26091 1.14092,-1.26899 0.29764,-0.36766 0.62502,-0.36766 0.41669,0 0.71432,0.37952 0.30755,0.36766 0.30755,0.9132 0,0.45067 -0.28771,0.83018 -1.70641,2.22965 -3.99817,2.22965 -4.74226,0 -4.74226,-6.55847 0,-3.38003 1.508,-5.835 1.71634,-2.78704 4.2462,-2.78704 1.97429,0 3.2541,1.57734 1.27981,1.57735 1.27981,4.0086 z m -1.97428,0.14233 q -0.0595,-1.64852 -0.72424,-2.60916 -0.65478,-0.96064 -1.64689,-0.96064 -1.28973,0 -2.27191,1.10296 -1.01195,1.11482 -1.508,3.1547 0.70439,0.0949 1.49807,0.0949 1.92468,0 4.65297,-0.78274 z"
         id="path159"
         style="font-size:26.1056px;line-height:0;font-family:'Kristen ITC';-inkscape-font-specification:'Kristen ITC';fill:#534741;stroke-width:1.75725"
         aria-label="Experience" />
    </clipPath>
    <clipPath
       clipPathUnits="userSpaceOnUse"
       id="clipPath160">
      <path
         d="m 45.111973,44.831312 q 0,1.083485 -1.867598,2.064994 -1.803196,0.943268 -4.277992,1.249193 -1.481197,0.178456 -4.388393,0.178456 -1.030397,0 -1.398397,-0.101973 -0.919998,-0.242192 -0.919998,-1.096232 0,-0.522621 0.248399,-0.892281 0.2576,-0.356912 0.616399,-0.356912 h 0.846399 q 0.450799,-3.097491 0.450799,-13.078294 0,-0.420648 -0.0368,-4.65261 -0.303598,0 -0.6256,0.01275 -0.321997,0.01275 -0.331197,0.01275 -0.965998,0 -0.965998,-1.172716 0,-0.777558 0.505998,-1.083483 0.4692,-0.267684 1.609996,-0.267684 4.774794,0 7.626789,1.198206 1.904396,0.803053 1.904396,1.87379 0,0.44614 -0.248401,0.8158 -0.239198,0.356913 -0.524397,0.356913 -0.1656,0 -0.7084,-0.305925 -0.680799,-0.395152 -1.159198,-0.548116 -1.251197,-0.433393 -5.234791,-0.790305 0,2.307185 -0.0368,7.316705 1.159198,0.101976 2.226396,0.101976 0.745198,0 1.545598,-0.07648 0.800398,-0.07648 0.864798,-0.07648 0.993598,0 0.993598,1.172716 0,0.917773 -0.837198,1.159962 -0.570399,0.165711 -2.566796,0.165711 -1.103998,0 -2.263196,-0.07648 -0.092,5.850816 -0.340398,7.941304 h 0.377198 q 3.689193,0 5.556791,-0.764812 0.505999,-0.203951 1.435198,-0.854041 0.745197,-0.522621 1.094798,-0.522621 0.331198,0 0.579598,0.331418 0.248399,0.331419 0.248399,0.764812 z M 56.354352,43.36542 q 0,0.535371 -0.257599,0.943269 -0.257599,0.395155 -0.570398,0.395155 -0.588799,0 -4.765593,-4.754584 -1.306397,1.83555 -2.612795,3.683847 -0.984399,1.325674 -1.379999,1.325674 -0.395597,0 -0.689997,-0.395153 -0.2944,-0.4079 -0.2944,-0.930521 0,-0.650092 1.057998,-1.963021 1.784797,-2.243449 2.575996,-3.46715 -2.621995,-3.607366 -3.468394,-6.449917 -0.524399,-0.420648 -0.524399,-1.07074 0,-0.560861 0.275998,-0.956013 0.276001,-0.407901 0.643999,-0.407901 0.5336,0 0.873998,0.560862 0.239201,0.382407 0.6348,1.580612 0.745199,2.20521 2.713995,4.85656 1.481199,-2.294438 2.263197,-4.461407 0.275999,-0.879533 0.5612,-1.771814 0.275999,-0.713825 0.791197,-0.713825 0.413999,0 0.680799,0.356913 0.2668,0.356912 0.2668,0.930521 0,2.243449 -3.201596,7.405933 0.846399,1.019752 3.192396,3.35243 1.232797,1.223698 1.232797,1.95027 z m 10.644384,-5.557636 q 0,3.263201 -1.407598,5.213471 -1.398398,1.937526 -3.753593,1.937526 -1.315599,0 -2.566796,-0.803053 -0.211601,2.982767 -0.349599,3.671099 -0.23,1.121727 -0.8372,1.121727 -0.386399,0 -0.653197,-0.331419 -0.2668,-0.33142 -0.2668,-0.815801 0,0.07648 0.147199,-1.618853 0.183999,-1.988513 0.285199,-4.295698 0.147201,-3.314187 0.147201,-7.163742 0,-0.764815 -0.01839,-1.746324 -0.01839,-0.994254 -0.01839,-1.198206 0,-1.695333 0.8556,-1.695333 0.892397,0 0.919997,1.172713 l 0.01839,0.777557 q 1.103998,-1.478637 2.861196,-1.478637 2.088397,0 3.348794,1.937525 1.287997,1.975766 1.287997,5.315448 z m -1.830798,0 q 0,-2.332678 -0.781999,-3.620114 -0.781998,-1.287434 -2.171196,-1.287434 -2.171196,0 -2.677196,1.899285 v 1.261941 q 0,2.957275 -0.110399,5.812576 1.186799,0.790305 2.410397,0.790305 1.591597,0 2.456395,-1.261941 0.873998,-1.261941 0.873998,-3.594618 z m 12.511976,-2.664098 q 0,1.325676 -0.662396,1.963021 -0.2944,0.280429 -1.867598,0.726569 -2.088397,0.599104 -3.560393,0.599104 -0.6716,0 -1.619197,-0.127468 0,4.805571 2.640394,4.805571 0.726799,0 1.315599,-0.573608 0.294397,-0.280432 1.057997,-1.363917 0.275999,-0.395152 0.579599,-0.395152 0.386399,0 0.662401,0.4079 0.285198,0.395152 0.285198,0.981509 0,0.48438 -0.2668,0.892281 -1.582397,2.396413 -3.707594,2.396413 -4.397592,0 -4.397592,-7.049021 0,-3.632862 1.398398,-6.271464 1.591597,-2.995515 3.937594,-2.995515 1.830795,0 3.017596,1.695334 1.186794,1.695333 1.186794,4.308443 z m -1.830796,0.152964 q -0.0552,-1.771817 -0.671598,-2.804314 -0.607199,-1.032497 -1.527198,-1.032497 -1.195997,0 -2.106796,1.185461 -0.938398,1.198205 -1.398398,3.390667 0.653199,0.101976 1.389198,0.101976 1.784798,0 4.314792,-0.841293 z m 10.368381,-1.975766 q 0,0.484381 -0.211595,0.815801 -0.211601,0.331417 -0.506,0.331417 -0.220803,0 -0.653199,-0.446141 -0.432398,-0.44614 -0.781997,-0.44614 -0.874002,0 -1.416797,1.070737 -0.542803,1.057992 -0.542803,2.868049 v 1.669838 q 0,2.791566 -0.423203,4.435914 -0.395594,1.542373 -1.021195,1.542373 -0.837194,0 -0.837194,-1.14722 0,-0.229444 0.257597,-1.682589 0.257598,-1.465889 0.257598,-2.753323 0,-3.569126 -0.735998,-5.7106 -0.01841,-0.06373 -0.506001,-1.287436 -0.248397,-0.624596 -0.248397,-0.994256 0,-0.407898 0.285198,-0.764813 0.285197,-0.356912 0.616398,-0.356912 0.975201,0 1.619197,3.314189 0.956804,-2.549377 2.787593,-2.549377 0.920001,0 1.490403,0.599104 0.570395,0.586357 0.570395,1.491385 z m 4.213592,-6.615628 q 0,1.810057 -1.278793,1.810057 -0.515202,0 -0.874004,-0.497129 -0.349599,-0.497128 -0.349599,-1.198208 0,-0.764811 0.386401,-1.30018 0.386401,-0.535369 0.947601,-0.535369 0.524398,0 0.846397,0.471635 0.321997,0.471634 0.321997,1.249194 z m -0.395594,4.856559 q 0,7.686366 -0.395603,11.357467 -0.156394,1.478635 -0.349599,1.988511 -0.248395,0.675584 -0.8004,0.675584 -0.367994,0 -0.625592,-0.331417 -0.257605,-0.344167 -0.257605,-0.8158 0,0.06373 0.147199,-0.879536 0.174798,-1.070737 0.285205,-2.434654 0.147199,-1.937525 0.147199,-4.333936 0,-1.045244 -0.01841,-2.205209 -0.01841,-1.159965 -0.01841,-1.261941 0,-1.720829 0.211601,-2.396413 0.220795,-0.73932 0.827999,-0.73932 0.846397,0 0.846397,1.376664 z m 11.831183,3.581871 q 0,1.325676 -0.6624,1.963021 -0.2944,0.280429 -1.8676,0.726569 -2.088397,0.599104 -3.560393,0.599104 -0.671598,0 -1.619197,-0.127468 0,4.805571 2.640392,4.805571 0.726804,0 1.315603,-0.573608 0.2944,-0.280432 1.057997,-1.363917 0.275995,-0.395152 0.579597,-0.395152 0.386401,0 0.662401,0.4079 0.2852,0.395152 0.2852,0.981509 0,0.48438 -0.2668,0.892281 -1.582395,2.396413 -3.707594,2.396413 -4.397595,0 -4.397595,-7.049021 0,-3.632862 1.398401,-6.271464 1.591597,-2.995515 3.937592,-2.995515 1.830798,0 3.017596,1.695334 1.1868,1.695333 1.1868,4.308443 z m -1.8308,0.152964 q -0.05522,-1.771817 -0.6716,-2.804314 -0.607197,-1.032497 -1.527197,-1.032497 -1.195994,0 -2.106793,1.185461 -0.938398,1.198205 -1.398401,3.390667 0.653201,0.101976 1.389199,0.101976 1.784795,0 4.314792,-0.841293 z m 12.38318,2.064993 q 0,3.033755 -0.7176,6.029272 -0.4416,1.861045 -1.0948,1.861045 -0.3496,0 -0.598,-0.293179 -0.2484,-0.305925 -0.2484,-0.726573 0,-0.11472 0.4416,-2.31993 0.4416,-2.217957 0.4416,-4.397671 0,-4.958535 -2.23559,-4.958535 -1.2788,0 -2.0884,1.312928 -0.8372,1.351169 -0.8372,3.569124 0,1.236448 0.2484,3.454402 0.2576,2.20521 0.2576,3.148481 0,2.192462 -0.9016,2.192462 -0.46,0 -0.6348,-0.280432 -0.138,-0.216696 -0.23,-0.892281 -0.009,-0.790308 -0.23,-4.563382 -0.3772,-5.277205 -0.3772,-7.495162 0,-3.862303 1.0764,-3.862303 0.3496,0 0.598,0.305925 0.2484,0.293179 0.2484,0.688332 0,0.280429 -0.1104,1.057989 -0.1104,0.77756 -0.1104,1.312929 v 0.293179 q 1.3616,-2.562124 3.31199,-2.562124 1.794,0 2.7876,1.848297 1.0028,1.835552 1.0028,5.277207 z m 12.00597,3.46715 q 0,1.325674 -1.9412,3.403415 -1.37079,1.453145 -3.59719,1.453145 -2.208,0 -3.47759,-2.014006 -1.2972,-2.052248 -1.2972,-5.634119 0,-4.627116 1.4904,-7.201985 1.49039,-2.587617 4.09399,-2.587617 1.932,0 3.16479,1.198208 1.16841,1.121725 1.16841,2.68959 0,1.287436 -0.86481,1.287436 -0.40479,0 -0.5888,-0.395155 -0.16559,-0.560861 -0.506,-1.402157 -0.65319,-1.019749 -2.37359,-1.019749 -1.794,0 -2.7784,1.873792 -0.97519,1.87379 -0.97519,5.353685 0,5.506651 3.16479,5.506651 1.8308,0 3.128,-1.797309 0.009,-0.01275 0.57039,-1.14722 0.3312,-0.688329 0.75441,-0.688329 0.33119,0 0.59799,0.356912 0.2668,0.344165 0.2668,0.764812 z m 10.57078,-5.685107 q 0,1.325676 -0.66239,1.963021 -0.2944,0.280429 -1.8676,0.726569 -2.0884,0.599104 -3.5604,0.599104 -0.67159,0 -1.61919,-0.127468 0,4.805571 2.64039,4.805571 0.7268,0 1.3156,-0.573608 0.2944,-0.280432 1.058,-1.363917 0.276,-0.395152 0.5796,-0.395152 0.3864,0 0.6624,0.4079 0.2852,0.395152 0.2852,0.981509 0,0.48438 -0.2668,0.892281 -1.5824,2.396413 -3.7076,2.396413 -4.39759,0 -4.39759,-7.049021 0,-3.632862 1.3984,-6.271464 1.5916,-2.995515 3.93759,-2.995515 1.8308,0 3.0176,1.695334 1.18679,1.695333 1.18679,4.308443 z m -1.8308,0.152964 q -0.0552,-1.771817 -0.67159,-2.804314 -0.6072,-1.032497 -1.5272,-1.032497 -1.196,0 -2.10679,1.185461 -0.9384,1.198205 -1.3984,3.390667 0.6532,0.101976 1.3892,0.101976 1.78479,0 4.31478,-0.841293 z"
         id="path160"
         style="font-size:26.1056px;line-height:0;font-family:'Kristen ITC';-inkscape-font-specification:'Kristen ITC';fill:#534741;stroke-width:1.75433"
         aria-label="Experience" />
    </clipPath>
  </defs>
  <g
     inkscape:label="Layer 1"
     inkscape:groupmode="layer"
     id="layer1"
     transform="translate(-18.265682,-98.999997)">
    <g
       id="g1">
      <rect
         style="fill:#decd87;fill-opacity:1;stroke-width:0.264999;filter:url(#filter32-7)"
         id="rect5-6"
         width="124.57196"
         height="45.664207"
         x="15.404922"
         y="15.727924"
         ry="6.9409595"
         clip-path="url(#clipPath160)"
         transform="matrix(1.3855323,0,0,1,-9.4947891,88.771219)" />
      <rect
         style="fill:none;fill-opacity:1;fill-rule:nonzero;stroke:#d3bc5f;stroke-width:3.175;stroke-dasharray:none;stroke-opacity:1;filter:url(#filter32-7)"
         id="rect152"
         width="164.75647"
         height="45.664204"
         x="23.562733"
         y="103.56643"
         ry="8.7638378" />
      <rect
         style="fill:#534741;fill-opacity:1;stroke-width:1.765;stroke-dasharray:none;filter:url(#filter159)"
         id="rect5"
         width="124.57196"
         height="45.664207"
         x="42.376381"
         y="181.92621"
         ry="6.9409595"
         clip-path="url(#clipPath159)"
         inkscape:label="rect5"
         transform="matrix(1.2848336,0,0,1.0747993,-31.089952,-90.935692)" />
      <rect
         style="fill:none;fill-opacity:1;fill-rule:nonzero;stroke:#534741;stroke-width:3.175;stroke-dasharray:none;stroke-opacity:1;filter:url(#filter159)"
         id="rect152-6"
         width="164.75647"
         height="45.664204"
         x="22.754166"
         y="102.66232"
         ry="8.7638378" />
    </g>
  </g>
</svg>
